PathFileType	4	(X/Y/Z)	D:\TRACE\v60_Jaco2_6-2-23\JustBodyDRS_Motion2_3-platform.trc
DataRate	CameraRate	NumFrames	NumMarkers	Units	OrigDataRate	OrigDataStartFrame	OrigNumFrames
100.00	100.00	      59	5	mm	100.00	1709	      6834
Frame#	Time	Left_Front			Right_Front			Left_Aft			Right_Aft			Post			
		X1	Y1	Z1	X2	Y2	Z2	X3	Y3	Z3	X4	Y4	Z4	X5	Y5	Z5	

1709	17.080	-842.31659	-10.20774	-642.79779	727.77448	-9.00382	-648.05853	-750.37817	20.97188	491.92471	692.43597	20.54775	501.66730	-56.56706	1279.35498	-1003.15546	
1710	17.090	-843.09851	-11.39945	-643.09320	727.13873	-10.05502	-648.36432	-751.24219	22.04680	491.63657	691.67780	21.52337	501.19879	-57.11743	1277.33118	-1006.35602	
1711	17.100	-843.96619	-13.10216	-643.50641	726.51044	-11.46269	-648.49878	-751.87018	22.73094	491.30161	690.65112	22.33819	500.78055	-57.64639	1275.38477	-1009.32892	
1712	17.110	-844.63690	-14.40211	-643.66272	725.67590	-13.00241	-648.89240	-752.56653	23.49095	491.03116	689.76599	23.12712	500.31555	-58.26436	1273.49854	-1012.16248	
1713	17.120	-845.01581	-15.32711	-643.86475	725.13647	-13.88254	-648.91699	-753.40991	24.34687	490.73419	689.26233	23.76448	500.02756	-58.83363	1271.24158	-1015.13232	
1714	17.130	-845.70984	-16.84781	-644.15808	724.26416	-15.44175	-649.40277	-754.32281	25.56935	490.17535	688.74750	24.92530	499.99414	-59.56521	1269.60889	-1017.78778	
1715	17.140	-846.33057	-17.99374	-644.44495	724.05945	-16.25050	-649.20306	-754.31445	26.04457	490.27084	688.20953	25.97722	499.58072	-60.20676	1267.48267	-1020.03705	
1716	17.150	-846.87012	-19.17334	-644.79382	723.10138	-17.70506	-649.76648	-754.85962	26.82552	489.71243	687.53485	26.92817	499.22491	-61.06733	1265.55396	-1022.38922	
1717	17.160	-847.62360	-20.56060	-644.91522	722.62213	-19.11574	-649.98639	-755.52374	27.71212	489.42462	686.85822	27.58498	498.85999	-61.37699	1263.44116	-1024.71082	
1718	17.170	-848.22937	-22.21055	-645.08881	722.07294	-20.40950	-650.33197	-756.16339	28.50443	489.05545	686.14655	28.31235	498.47073	-62.09495	1261.73816	-1026.99084	
1719	17.180	-848.76019	-22.92029	-645.33545	721.49854	-21.56916	-650.77496	-756.78644	29.18173	488.76788	685.74316	29.33427	498.19339	-62.57060	1259.40527	-1029.39551	
1720	17.190	-849.11182	-24.43507	-645.44867	721.08960	-22.70532	-650.80151	-757.07629	30.13552	488.31204	685.42432	30.39306	497.93735	-62.83276	1257.82629	-1031.82520	
1721	17.200	-849.53998	-25.51701	-645.89716	720.85834	-23.92080	-650.96490	-757.36475	31.02448	488.13144	685.06854	31.13042	497.55280	-63.32646	1256.10840	-1034.28674	
1722	17.210	-850.11298	-26.58802	-645.86066	720.25604	-24.98234	-651.30292	-757.71924	31.85105	487.73721	684.54541	31.88748	497.30676	-63.67401	1254.12463	-1036.95508	
1723	17.220	-850.36475	-27.60473	-646.30182	720.12463	-26.20686	-651.26654	-758.07922	32.47759	487.53888	684.26904	32.59026	496.90643	-64.31255	1252.29700	-1039.48547	
1724	17.230	-850.65289	-29.04025	-646.06555	719.82764	-27.49626	-651.47369	-758.51416	33.15559	487.20935	683.88037	33.36201	496.55069	-64.45357	1250.36121	-1041.93323	
1725	17.240	-850.77948	-30.13590	-646.63074	719.37653	-28.52815	-651.75385	-758.86487	33.89880	486.81146	683.55090	34.19172	496.37448	-64.89443	1248.66772	-1044.66187	
1726	17.250	-851.01862	-31.13609	-646.65033	719.17468	-29.45296	-652.05444	-759.08179	34.94186	486.33060	683.44080	34.97303	496.13989	-64.95457	1247.03333	-1047.21143	
1727	17.260	-851.10889	-31.90712	-646.88776	719.26721	-30.48536	-652.21149	-759.14917	35.84041	486.06628	683.17603	35.86016	496.03647	-65.27116	1245.46887	-1049.79968	
1728	17.270	-851.31152	-33.30782	-647.00116	719.11310	-31.58254	-652.48315	-759.23108	36.53407	485.72314	683.26575	36.38664	495.69025	-65.02351	1243.60107	-1052.05042	
1729	17.280	-851.20398	-34.46055	-647.13727	719.10394	-32.77888	-652.71869	-759.42627	37.20444	485.54681	682.98572	37.10600	495.45273	-65.24844	1241.89197	-1054.07520	
1730	17.290	-851.23328	-35.40594	-647.57080	718.92615	-33.74893	-652.90283	-759.48633	37.72458	485.21515	683.22906	37.79179	495.15784	-65.39743	1240.13489	-1056.42334	
1731	17.300	-851.12006	-36.69034	-647.58356	718.99854	-34.87978	-653.05170	-759.49908	38.39179	484.98816	683.20447	38.63766	494.68417	-65.25600	1238.70020	-1058.43665	
1732	17.310	-851.09869	-37.41261	-647.71057	718.93597	-35.72313	-653.30499	-759.36938	39.35218	484.65930	683.24255	39.27745	494.36533	-64.89523	1237.16418	-1060.51477	
1733	17.320	-851.01819	-38.28965	-648.03479	718.84674	-36.72356	-653.56683	-759.53314	40.05439	484.34052	683.04443	39.94082	494.05286	-64.90188	1235.70850	-1062.40710	
1734	17.330	-850.96344	-39.49309	-648.28412	718.74646	-37.61300	-653.74109	-759.62512	40.76050	483.92828	682.97253	40.49156	493.85291	-65.16001	1233.95837	-1063.57678	
1735	17.340	-850.93439	-40.30276	-648.38531	719.08124	-38.65433	-653.69910	-759.52960	41.35718	483.48895	683.14075	41.12685	493.60770	-65.25271	1232.52551	-1065.63953	
1736	17.350	-850.67224	-41.40577	-648.60938	719.33160	-39.55730	-653.96826	-758.70032	41.17752	483.67371	683.66864	41.91153	493.37668	-64.80870	1231.26392	-1067.25513	
1737	17.360	-850.29828	-42.20286	-648.54822	719.65002	-40.32130	-654.03412	-758.36578	41.84684	483.52069	684.22070	42.51393	492.99796	-65.10831	1229.73645	-1068.57202	
1738	17.370	-850.19385	-42.62587	-648.99420	720.04944	-41.05299	-654.17780	-758.07715	42.53276	483.35635	684.64294	43.24384	492.95981	-64.00307	1228.60315	-1070.17957	
1739	17.380	-849.91602	-43.46270	-648.91644	720.32660	-41.91067	-654.18121	-757.81860	43.07585	483.20709	684.69031	43.78912	492.72098	-63.94999	1227.28845	-1071.81824	
1740	17.390	-849.56934	-44.54514	-648.93286	720.50970	-42.80995	-654.41565	-757.38831	43.45406	483.06403	685.04919	44.29037	492.48233	-63.57157	1225.70020	-1073.86719	
1741	17.400	-849.11584	-45.33891	-649.00995	720.87329	-43.54609	-654.65088	-757.23535	43.94977	482.60892	685.08624	44.56874	492.17691	-63.43955	1224.74182	-1075.49805	
1742	17.410	-848.49072	-45.99256	-649.25403	721.18414	-44.13584	-654.65320	-757.26068	44.78670	482.43411	685.56348	45.11600	491.96066	-63.46546	1223.64307	-1076.94153	
1743	17.420	-847.76727	-46.69999	-649.44012	721.58618	-44.63050	-654.77582	-756.23267	44.82991	481.98486	686.11914	45.83619	491.72821	-62.62588	1222.42163	-1078.65967	
1744	17.430	-847.57751	-47.02936	-649.41962	721.85785	-45.00838	-654.92731	-756.15717	45.30288	481.78162	686.60669	46.25888	491.55988	-61.85918	1221.01440	-1080.18298	
1745	17.440	-847.63141	-47.90116	-649.75195	722.63251	-46.61890	-654.85828	-755.27362	45.34499	481.58789	687.01953	46.61433	491.12408	-62.22474	1220.04468	-1081.49841	
1746	17.450	-847.15918	-48.88068	-650.01099	722.93628	-47.39051	-655.11682	-755.16388	46.31372	481.28055	687.25446	46.96747	490.92239	-61.83192	1218.83411	-1082.88770	
1747	17.460	-846.54822	-49.62889	-650.07678	723.46606	-47.88885	-655.38745	-754.61987	46.59165	481.07852	687.53925	47.55047	490.59805	-61.05615	1217.65381	-1084.42334	
1748	17.470	-845.86481	-49.96058	-650.11298	723.80096	-48.31654	-655.47101	-754.07324	46.98531	481.01794	687.62946	47.62526	490.25500	-59.86727	1216.28943	-1085.92896	
1749	17.480	-845.36646	-50.44485	-650.10254	724.48395	-49.19717	-655.44379	-753.68750	47.57304	480.80655	687.82147	47.69166	489.69717	-59.92870	1215.58545	-1086.95422	
1750	17.490	-844.78247	-51.15199	-650.11768	724.82410	-49.54731	-655.42084	-753.37195	47.99398	480.66666	690.38965	49.60463	490.94739	-59.51943	1214.82166	-1088.46899	
1751	17.500	-844.24969	-51.63147	-650.11981	725.20404	-49.78373	-655.51007	-752.83990	48.37127	480.48428	689.66241	49.17841	489.73605	-59.12135	1213.91028	-1090.25098	
1752	17.510	-844.34399	-51.82478	-650.52386	725.97363	-50.50246	-655.71759	-752.24261	48.48484	480.31537	690.25714	49.42845	490.00998	-58.61078	1213.22546	-1091.18066	
1753	17.520	-843.45697	-52.08805	-650.57184	726.62744	-50.85877	-655.84808	-751.82233	48.82807	480.27924	690.99146	49.66150	489.86386	-57.57397	1212.71533	-1092.27234	
1754	17.530	-842.47614	-52.13280	-650.63922	727.22180	-50.86104	-655.95050	-751.53717	49.24297	480.27008	691.72614	49.78901	489.82568	-56.90174	1212.35974	-1093.85974	
1755	17.540	-842.13660	-52.42040	-650.56989	727.81750	-51.00593	-655.86823	-750.54602	49.07335	480.00394	692.26764	49.88429	489.76117	-56.60869	1211.99255	-1094.54675	
1756	17.550	-841.56952	-52.64994	-650.56006	728.25562	-51.18828	-655.78796	-749.87341	49.27398	479.88831	692.62653	49.92392	489.73380	-55.71352	1211.80627	-1095.57556	
1757	17.560	-840.99420	-52.84836	-650.65363	728.86646	-51.23307	-655.68646	-749.22137	49.35749	479.83679	693.09033	49.89068	489.72916	-55.00651	1211.53967	-1096.37366	
1758	17.570	-840.62988	-52.88719	-650.71588	729.69861	-51.32054	-655.87280	-748.34595	48.80262	480.09250	694.01746	50.13770	489.72690	-54.43182	1211.50830	-1097.17065	
1759	17.580	-839.70844	-52.99351	-650.67365	730.28833	-51.43360	-656.00836	-747.84998	48.97879	479.89981	694.90161	50.35120	489.73538	-53.86629	1211.35974	-1097.65454	
1760	17.590	-838.61591	-53.14310	-650.56409	731.07562	-51.40123	-655.89435	-747.10608	49.11437	479.86044	695.62225	50.29424	489.67209	-53.33211	1211.26550	-1097.73267	
1761	17.600	-838.11511	-53.07224	-650.55945	731.97607	-51.43213	-655.77893	-746.35620	49.25204	479.83011	696.14215	50.23063	489.63568	-52.12211	1211.01147	-1098.21411	
1762	17.610	-837.65173	-53.10143	-650.40857	732.56305	-51.39587	-655.76013	-745.77252	49.30177	479.71567	696.80377	50.17815	489.60355	-51.64816	1210.93555	-1098.42712	
1763	17.620	-836.85315	-53.12799	-650.61548	733.19055	-51.42407	-655.91895	-745.02124	49.28297	479.69562	697.32031	50.12149	489.49554	-51.05758	1210.96326	-1098.23010	
1764	17.630	-836.13678	-53.30463	-650.77838	733.97028	-51.41791	-655.94977	-744.27405	49.27241	479.67850	698.25281	50.20722	489.53674	-50.53667	1211.01355	-1098.08484	
1765	17.640	-835.11334	-53.23544	-650.54962	734.57159	-51.48056	-655.96155	-743.46698	49.23481	479.71457	699.30670	50.28477	489.53729	-49.39497	1210.89063	-1097.69873	
1766	17.650	-834.31097	-52.97292	-650.63379	735.51392	-51.43800	-655.92688	-742.81659	49.19659	479.77594	699.92206	50.29145	489.58456	-48.46622	1211.05811	-1097.15015	
1767	17.660	-833.73016	-52.85394	-650.65009	736.35730	-51.31498	-655.81012	-741.93384	49.13189	479.94067	700.61237	50.18855	489.58453	-47.77747	1211.33972	-1096.47278	
